<svg xmlns="http://www.w3.org/2000/svg" viewBox="0 0 200 60" fill="currentColor">
  <g>
    <!-- B -->
    <path d="M10 10 h25 c8 0 14 4 14 12 c0 4-2 7-5 9 c4 2 7 5 7 10 c0 9-6 14-15 14 h-26 v-45 z M22 26 h11 c3 0 5-2 5-5 c0-3-2-5-5-5 h-11 v10 z M22 48 h12 c4 0 7-2 7-6 c0-4-3-6-7-6 h-12 v12 z"/>
    <!-- Y -->
    <path d="M65 10 l10 18 l10-18 h13 l-17 28 v17 h-12 v-17 l-17-28 h13 z"/>
    <!-- D -->
    <path d="M110 10 h20 c14 0 24 9 24 22.5 c0 13.5-10 22.5-24 22.5 h-20 v-45 z M122 48 h8 c7 0 12-5 12-15.5 c0-10.5-5-15.5-12-15.5 h-8 v31 z"/>
  </g>
</svg>

